# xmcd
#
# Track frame offsets: 
#        150
#        19265
#        46368
#        69180
#        97660
#        98280
#        99045
#        99635
#        100298
#        100835
#
# Disc length: 1349 seconds
#
# Revision: 0
# Processed by: cddbd v1.4PL0 Copyright (c) Steve Scherf et al.
# Submitted via: ExactAudioCopy v0.95a3
#
DISCID=6405430a
DTITLE=The Sounds Of Blackness - Soul Holidays
DYEAR=1992
DGENRE=Soul
TTITLE0=Soul Holidays (Radio Edit)
TTITLE1=Soul Holidays (Album Version)
TTITLE2=It's Christmas
TTITLE3=We Give You Thanks
TTITLE4=Merry Christmas 1
TTITLE5=Merry Christmas 2
TTITLE6=Happy Holidays 1
TTITLE7=Happy Holidays 2
TTITLE8=Happy Kwaanza 1
TTITLE9=Happy Kwaanza 2
EXTD=
EXTT0=
EXTT1=
EXTT2=
EXTT3=
EXTT4=
EXTT5=
EXTT6=
EXTT7=
EXTT8=
EXTT9=
PLAYORDER=
